# xmcd
#
# Track frame offsets:
#	187
#	19277
#	32372
#	50790
#	65212
#	84845
#	103605
#	121565
#	138955
#	158337
#	175790
#	194130
#	212442
#	229965
#	248592
#	268045
#	288345
#	305857
#	324965
#
# Disc length: 4520 seconds
#
# Revision: 1
# Processed by: cddbd v1.5.1PL0 Copyright (c) Steve Scherf et al.
# Submitted via: CDex 1.50Beta5
#
DISCID=0511a613
DTITLE=岩崎宏美 - 岩崎宏美ベストセレクション [CD2]
DYEAR=1900
DGENRE=Pop
TTITLE0=恋待草
TTITLE1=すみれ色の涙
TTITLE2=れんげ草の恋
TTITLE3=檸檬(レモン)
TTITLE4=聖母(マドンナ)たちのララバイ
TTITLE5=思い出さないで
TTITLE6=素直な気持ち
TTITLE7=真珠のピリオド
TTITLE8=家路
TTITLE9=20(はたち)の恋
TTITLE10=橋
TTITLE11=決心
TTITLE12=夢狩人
TTITLE13=月光
TTITLE14=好きにならずにいられない
TTITLE15=夜のてのひら
TTITLE16=最初の恋人達
TTITLE17=未成年
TTITLE18=愛を+(プラス)ワン
EXTD=
EXTT0=
EXTT1=
EXTT2=
EXTT3=
EXTT4=
EXTT5=
EXTT6=
EXTT7=
EXTT8=
EXTT9=
EXTT10=
EXTT11=
EXTT12=
EXTT13=
EXTT14=
EXTT15=
EXTT16=
EXTT17=
EXTT18=
PLAYORDER=
